<svg width="360" height="401" viewBox="0 0 360 401" fill="none" xmlns="http://www.w3.org/2000/svg">
<rect width="360" height="401" fill="#F5F5F5"/>
<rect width="360" height="401" fill="white"/>
<path d="M315 192.5C315 269.544 255.23 332 181.5 332C107.77 332 48 269.544 48 192.5C48 115.456 107.77 53 181.5 53C255.23 53 315 115.456 315 192.5Z" fill="#81AFDA"/>
<path d="M263.432 245H246.333L247.72 227.084L246.333 196.372L247.72 180.65L250.03 179.188V150.303L247.72 149.572L246.333 143.356L243.098 140.066L239.864 138.603H238.015L234.78 140.066H226V129.828H234.78L238.015 131.291H239.864H243.098V129.828L249.106 128H259.273L263.432 129.828L271.75 133.484L282.379 143.356L287 149.572V151.4L266.205 140.066L259.273 145.55V150.303V179.188L261.583 180.65L263.432 196.372L261.583 228.181L263.432 245Z" fill="#BCC9FF" stroke="#1E1E1E" stroke-width="3.5"/>
<path d="M206.047 244.072L183.248 244.072L181.998 240.524L180.748 236.976L180.248 231.476L181.177 226.89L185.408 214.064L186.656 207.978L184.477 203.693L182.386 200.396L182.386 195.976L186.656 195.976L186.656 194.712L190.25 194.712L190.25 144.476L187.79 140.669L187.79 137.476L187.79 134.976L187.79 131.476L187.79 126.976L198.748 126.976L198.748 130.976L198.748 133.976L198.748 136.976L198.748 140.669L196.158 144.476L195.748 194.712L199.283 194.712L199.283 196.296L203.747 196.296L203.747 200.396L201.748 203.693L200.303 206.752L201.748 214.064L206.605 226.89L207.748 231.476L207.248 236.976L206.605 240.288L206.047 244.072Z" fill="#BCC9FF" stroke="#1E1E1E" stroke-width="3.5"/>
<path d="M16 169L183.763 26L343 169" stroke="#761C1C" stroke-width="8"/>
<path d="M31.8686 314V279.091H55.6982V285.943H40.3061V293.102H54.1811V299.972H40.3061V314H31.8686ZM59.9467 314V279.091H84.2876V285.943H68.3842V293.102H83.0433V299.972H68.3842V307.148H84.2876V314H59.9467ZM89.5717 314V279.091H103.992C106.606 279.091 108.862 279.562 110.759 280.506C112.668 281.437 114.14 282.778 115.174 284.528C116.208 286.267 116.725 288.33 116.725 290.716C116.725 293.136 116.197 295.193 115.14 296.886C114.083 298.568 112.583 299.852 110.64 300.739C108.697 301.614 106.396 302.051 103.737 302.051H94.6172V295.403H102.168C103.441 295.403 104.504 295.239 105.356 294.909C106.219 294.568 106.873 294.057 107.316 293.375C107.759 292.682 107.981 291.795 107.981 290.716C107.981 289.636 107.759 288.744 107.316 288.04C106.873 287.324 106.219 286.79 105.356 286.438C104.492 286.074 103.43 285.892 102.168 285.892H98.0092V314H89.5717ZM109.225 298.045L117.918 314H108.714L100.191 298.045H109.225ZM121.353 314V279.091H135.773C138.387 279.091 140.643 279.562 142.54 280.506C144.45 281.437 145.921 282.778 146.955 284.528C147.989 286.267 148.506 288.33 148.506 290.716C148.506 293.136 147.978 295.193 146.921 296.886C145.864 298.568 144.364 299.852 142.421 300.739C140.478 301.614 138.177 302.051 135.518 302.051H126.398V295.403H133.95C135.222 295.403 136.285 295.239 137.137 294.909C138.001 294.568 138.654 294.057 139.097 293.375C139.54 292.682 139.762 291.795 139.762 290.716C139.762 289.636 139.54 288.744 139.097 288.04C138.654 287.324 138.001 286.79 137.137 286.438C136.273 286.074 135.211 285.892 133.95 285.892H129.79V314H121.353ZM141.006 298.045L149.7 314H140.495L131.972 298.045H141.006ZM153.134 314V279.091H177.475V285.943H161.572V293.102H176.231V299.972H161.572V307.148H177.475V314H153.134ZM181.617 285.943V279.091H211.123V285.943H200.538V314H192.219V285.943H181.617ZM215.244 314V279.091H239.585V285.943H223.681V293.102H238.34V299.972H223.681V307.148H239.585V314H215.244ZM244.869 314V279.091H259.289C261.903 279.091 264.158 279.562 266.056 280.506C267.965 281.437 269.437 282.778 270.471 284.528C271.505 286.267 272.022 288.33 272.022 290.716C272.022 293.136 271.494 295.193 270.437 296.886C269.38 298.568 267.88 299.852 265.937 300.739C263.994 301.614 261.692 302.051 259.033 302.051H249.914V295.403H257.465C258.738 295.403 259.8 295.239 260.653 294.909C261.516 294.568 262.17 294.057 262.613 293.375C263.056 292.682 263.278 291.795 263.278 290.716C263.278 289.636 263.056 288.744 262.613 288.04C262.17 287.324 261.516 286.79 260.653 286.438C259.789 286.074 258.727 285.892 257.465 285.892H253.306V314H244.869ZM264.522 298.045L273.215 314H264.011L255.488 298.045H264.522ZM285.087 279.091V314H276.65V279.091H285.087ZM297.935 314H288.867L300.646 279.091H311.879L323.657 314H314.589L306.39 287.886H306.117L297.935 314ZM296.725 300.261H315.68V306.67H296.725V300.261ZM143.83 366V331.091H152.267V359.148H166.79V366H143.83ZM171.158 331.091H181.607L190.47 352.705H190.879L199.743 331.091H210.192V366H201.976V344.557H201.686L193.3 365.778H188.05L179.663 344.438H179.374V366H171.158V331.091Z" fill="black"/>
<path d="M133.263 199.163C132.736 199.731 132.441 200.496 132.441 201.292C132.441 202.088 132.736 202.852 133.263 203.421L137.862 208.288C138.4 208.845 139.122 209.157 139.875 209.157C140.628 209.157 141.35 208.845 141.888 208.288L152.726 196.82C154.172 200.2 154.61 203.966 153.981 207.616C153.353 211.265 151.688 214.626 149.208 217.249C146.729 219.872 143.552 221.634 140.103 222.299C136.653 222.964 133.093 222.501 129.899 220.971L110.033 241.989C108.889 243.199 107.338 243.879 105.72 243.879C104.102 243.879 102.551 243.199 101.408 241.989C100.264 240.779 99.6212 239.138 99.6212 237.427C99.6212 235.715 100.264 234.074 101.408 232.864L121.274 211.846C119.828 208.466 119.39 204.701 120.019 201.051C120.647 197.401 122.312 194.041 124.792 191.418C127.271 188.794 130.448 187.033 133.897 186.368C137.347 185.703 140.907 186.166 144.101 187.695L133.263 199.163Z" fill="#BCC9FF" stroke="#1E1E1E" stroke-width="4" stroke-linecap="round" stroke-linejoin="round"/>
<path d="M137 123.125H93.875V158.333H137V123.125Z" fill="#BCC9FF"/>
<path d="M137 136.667H148.5L157.125 144.792V158.333H137V136.667Z" fill="#BCC9FF"/>
<path d="M106.812 171.875C110.782 171.875 114 168.844 114 165.104C114 161.365 110.782 158.333 106.812 158.333C102.843 158.333 99.625 161.365 99.625 165.104C99.625 168.844 102.843 171.875 106.812 171.875Z" fill="#BCC9FF"/>
<path d="M144.188 171.875C148.157 171.875 151.375 168.844 151.375 165.104C151.375 161.365 148.157 158.333 144.188 158.333C140.218 158.333 137 161.365 137 165.104C137 168.844 140.218 171.875 144.188 171.875Z" fill="#BCC9FF"/>
<path d="M137 158.333V123.125H93.875V158.333H137ZM137 158.333H157.125V144.792L148.5 136.667H137V158.333ZM114 165.104C114 168.844 110.782 171.875 106.812 171.875C102.843 171.875 99.625 168.844 99.625 165.104C99.625 161.365 102.843 158.333 106.812 158.333C110.782 158.333 114 161.365 114 165.104ZM151.375 165.104C151.375 168.844 148.157 171.875 144.188 171.875C140.218 171.875 137 168.844 137 165.104C137 161.365 140.218 158.333 144.188 158.333C148.157 158.333 151.375 161.365 151.375 165.104Z" stroke="#1E1E1E" stroke-width="4" stroke-linecap="round" stroke-linejoin="round"/>
</svg>
